<?xml version="1.0" encoding="utf-8"?>
<!-- Generator: Adobe Illustrator 24.3.0, SVG Export Plug-In . SVG Version: 6.00 Build 0)  -->
<svg version="1.1" id="Capa_1" xmlns="http://www.w3.org/2000/svg" xmlns:xlink="http://www.w3.org/1999/xlink" x="0px" y="0px"
	 viewBox="0 0 64 64.4" style="enable-background:new 0 0 64 64.4;" xml:space="preserve">
<style type="text/css">
	.st0{fill:#304F4F;}
	.st1{enable-background:new    ;}
	.st2{fill:#FFFFFF;stroke:#FFFFFF;stroke-miterlimit:10;}
</style>
<circle class="st0" cx="32.2" cy="32.3" r="31.2"/>
<g class="st1">
	<path class="st2" d="M37.6,24.9c0-3.3-2.5-5.2-5-5.2c-5.5,0-4.7,6.6-7.3,6.6c-1.1,0-1.8-0.6-1.8-1.7c0-2.4,3.4-6.4,9-6.4
		c4.8,0,8.6,2.3,8.6,7.1c0,6.8-8.4,7.6-8.4,13.3c0,1-2.3,1-2.6,0C29.4,32.1,37.6,31.1,37.6,24.9z M28.9,44.3c0-1.5,1-2.3,2.4-2.3
		c1.3,0,2.4,0.8,2.4,2.3c0,1.4-1,2.2-2.4,2.2C30,46.5,28.9,45.7,28.9,44.3z"/>
</g>
</svg>
