<?xml version="1.0" encoding="utf-8"?>
<!-- Generator: Adobe Illustrator 24.3.0, SVG Export Plug-In . SVG Version: 6.00 Build 0)  -->
<svg version="1.1" id="Capa_1" xmlns="http://www.w3.org/2000/svg" xmlns:xlink="http://www.w3.org/1999/xlink" x="0px" y="0px"
	 viewBox="0 0 215.7 193" style="enable-background:new 0 0 215.7 193;" xml:space="preserve">
<style type="text/css">
	.st0{fill:#FDC608;}
	.st1{fill:#FDC608;stroke:#FDC608;stroke-miterlimit:10;}
</style>
<path class="st0" d="M95.6,181.5c-48.7,0-88.2-39.5-88.2-88.2S46.9,5.1,95.6,5.1s88.2,39.5,88.2,88.2c0,0,0,0,0,0
	C183.7,142,144.3,181.4,95.6,181.5z M95.6,9.1c-46.5,0-84.2,37.7-84.2,84.2c0,46.5,37.7,84.2,84.2,84.2s84.2-37.7,84.2-84.2
	c0,0,0,0,0,0C179.7,46.8,142.1,9.2,95.6,9.1z"/>
<path class="st1" d="M69.4,174.3l-1.5-0.4c-0.6-0.1-13.4-3.4-19.9-22c-1.6-4.3-2.9-8.6-3.9-13c-0.7-3-0.7-3-4.4-7.2l-0.2-0.3
	c-7-7.9-8.4-21.7-8.5-22.3c0.1-2.1-0.2-5.3-1.2-5.9c-2.9-1.8-4-8.6-3.3-20.6v-0.1c-0.1-0.3-0.8-1.8-5.2-5.7
	c-6.7-5.9-2.3-25.4-2.1-26.3l2,0.4c-1.2,5.3-3.3,20.1,1.5,24.3c5.4,4.8,6.2,6.7,5.9,7.6c-0.8,14.4,1.2,17.9,2.4,18.7
	c2.3,1.5,2.1,6.6,2.1,7.6l0,0c0,0,1.5,13.6,8,21l0.2,0.3c3.9,4.4,4.1,4.6,4.9,8.1c1,4.4,2.3,8.6,3.9,12.8
	c4.9,13.9,13.6,18.8,17,20.2c-1.7-11.7,1.6-19.7,9.9-24.2c6.4-3.4,9.8-6.1,13.8-12.7c2.6-4.3,3.4-8.5,2-10.8c-1-1.7-3.1-2.6-6.4-2.6
	c-5.8,0-11.3-2.6-15-7.1c-1-0.5-3-2.9-9.4-10.6c-8.2-9.9-17.6-10.2-23.2-10.3c-2.6-0.1-4.4-0.1-5.4-1c-2.7-2.3-2.2-9.7-1.4-17.7
	l0.1-1.3c0.1-0.4,0.1-0.9,0-1.3c-0.8,0.5-1.6,1.2-2.2,2l-0.5,0.7l-3.4-2c-1.3-1.8-1.8-4.2-1.2-6.4c0.7-3.3,2.9-6.1,6-7.7
	c1.3-0.8,2.8-0.9,4.2-0.3c2.7,1.2,3.9,5.1,5.1,9.2c0.2,0.8,0.5,1.6,0.7,2.3c0.1,0.4,0.3,0.8,0.5,1.2c0.6-0.5,1.7-3,2.4-5.4
	c0.7-4.5,2.9-15.1,6.6-14.9c2,0.1,5.5-3.2,7.2-5.3l0.4-0.4l0.5,0.1c6.5,0.8,9.5,0.3,10.4,0.1l8.4-9.3c1.9-2.8,0.9-17.1-0.2-26l2-0.3
	c0.3,2.3,2.8,23-0.2,27.5l-8.9,9.9l-0.2,0.1c-0.1,0-3.1,1-10.9,0.1c-1.3,1.5-5.3,5.8-8.5,5.6c-1.1,0-3.3,5.8-4.5,13.3
	c-0.7,2.7-2.2,7-4.4,7.1l0,0c-1.5,0-2.2-2-2.4-2.6s-0.5-1.6-0.7-2.4c-1.1-3.5-2.2-7.2-4-7.9c-0.8-0.3-1.8-0.2-2.5,0.3
	c-2.5,1.3-4.3,3.6-4.9,6.3c-0.4,1.5-0.2,3.2,0.7,4.6l1.4,0.8c1.1-1.2,2.7-2.6,4-2.1s1.2,2.7,1.2,3.4l-0.1,1.3
	c-0.5,5-1.4,14.2,0.7,16c0.5,0.4,2.3,0.5,4.2,0.6c5.9,0.2,15.9,0.5,24.6,11.1c5.7,6.9,7.7,9.1,8.4,9.8l0.3-0.2
	c0.1,0.1,0.1,0.2,0.1,0.2c3.2,4.6,8.5,7.2,14.1,7.2c4,0,6.8,1.2,8.1,3.6c2.4,4.3-0.6,10.4-2.1,12.8c-4.2,7-8,9.9-14.6,13.5
	c-7.9,4.2-10.7,12-8.6,23.7L69.4,174.3z"/>
<path class="st1" d="M162.7,58.2c-11.3,0-16.4-11.2-16.5-11.4l-0.4-1l1-0.3c15.4-5.1,19.1-0.2,19.5,0.4l-1.7,1.1c0,0-3.1-4-16.1,0
	c1.8,3.2,8.3,12.7,20.9,7.8l0.7,1.9C167.7,57.6,165.2,58.1,162.7,58.2z"/>
<path class="st1" d="M168.9,49l-1.1-1.7c4.3-2.7,6.8-6,7.5-9.9c1-5.4-1.9-10.4-3-12.1c-7.8,3.4-7.3,15.8-7.2,16l-2,0.1
	c0-0.6-0.6-14.8,9.3-18.2L173,23l0.4,0.6c0.2,0.3,5.2,6.8,3.9,14.3C176.5,42.2,173.7,46,168.9,49z"/>
<path class="st1" d="M185.1,96.9c-1.9,0-3.8-0.1-5.7-0.3l0.2-2c10.6,1.1,18.5-0.9,23.6-5.9c6-6,6.3-14.7,6.2-17.3
	c-24.6-2.8-28.8,19.1-29,20l-2-0.3c0-0.2,4.8-25.2,32-21.6l0.8,0.1l0.1,0.8c0,0.5,1.1,12-6.7,19.7C200.1,94.6,193.5,96.9,185.1,96.9
	z"/>
<rect x="181.1" y="82" transform="matrix(0.8047 -0.5937 0.5937 0.8047 -11.2057 131.9342)" class="st1" width="27.7" height="2"/>
<path class="st1" d="M125,173.8c-9.3-6.4-14.5-14.1-15.5-22.9c-1.8-15.1,9.5-27.8,10-28.4l0.6-0.7l0.7,0.6c10.3,8.2,15.6,17,16,26.3
	c0.4,12.6-8.7,21.2-9.1,21.6l-1.4-1.5c0.1-0.1,8.9-8.4,8.4-20.1c-0.3-8.4-5.2-16.5-14.4-24.1c-2.3,2.9-10.3,13.8-8.9,26.1
	c1,8.2,5.9,15.4,14.7,21.4L125,173.8z"/>
<rect x="120" y="127.2" transform="matrix(0.996 -8.889429e-02 8.889429e-02 0.996 -11.2755 11.2818)" class="st1" width="2" height="10.1"/>
<rect x="122.6" y="142.4" transform="matrix(0.9918 -0.1279 0.1279 0.9918 -18.6352 17.0767)" class="st1" width="2" height="22.4"/>
<path class="st1" d="M151.6,187.5c-0.5,0-1,0-1.5-0.1c-7.7-0.6-14.8-5.8-21-15.4l1.7-1.1c5.9,9,12.4,13.9,19.5,14.5
	c8.8,0.7,16-5.7,17.9-7.6c-3.8-6-8.7-9.8-14.4-11.2c-10.6-2.6-21,3.7-21.1,3.8l-1-1.7c0.4-0.3,11.2-6.8,22.6-4
	c6.5,1.6,12,5.9,16.1,12.8l0.4,0.6l-0.5,0.6C169.8,179.1,162.1,187.5,151.6,187.5z"/>
<rect x="144.3" y="164.9" transform="matrix(0.2465 -0.9691 0.9691 0.2465 -59.7878 272.494)" class="st1" width="2" height="19.7"/>
<rect x="158.5" y="177" class="st1" width="5.8" height="2"/>
<path class="st1" d="M172.3,91.2c-4.5,0-8.2-3.7-8.2-8.2s3.7-8.2,8.2-8.2c4.5,0,8.2,3.7,8.2,8.2v0C180.5,87.5,176.8,91.2,172.3,91.2
	z M172.3,76.8c-3.4,0-6.2,2.8-6.2,6.2s2.8,6.2,6.2,6.2s6.2-2.8,6.2-6.2c0,0,0,0,0,0C178.5,79.6,175.7,76.8,172.3,76.8z"/>
<path class="st1" d="M166.5,114.9c-7.7,0-13.9-6.2-13.9-13.9s6.2-13.9,13.9-13.9c7.7,0,13.9,6.2,13.9,13.9
	C180.5,108.7,174.2,114.9,166.5,114.9z M166.5,89.1c-6.6,0-11.9,5.3-11.9,11.9s5.3,11.9,11.9,11.9s11.9-5.3,11.9-11.9v0
	C178.5,94.4,173.1,89.1,166.5,89.1z"/>
<path class="st1" d="M176.5,142.8c-3.9,0-7-3.1-7-7s3.1-7,7-7s7,3.1,7,7S180.4,142.8,176.5,142.8z M176.5,130.9c-2.8,0-5,2.2-5,5
	s2.2,5,5,5s5-2.2,5-5C181.5,133.1,179.3,130.9,176.5,130.9L176.5,130.9z"/>
<path class="st1" d="M158.5,142.8c-5.8,0-10.6-4.7-10.6-10.6s4.7-10.6,10.6-10.6c5.8,0,10.6,4.7,10.6,10.6
	C169,138.1,164.3,142.8,158.5,142.8z M158.5,123.7c-4.7,0-8.6,3.8-8.6,8.6c0,4.7,3.8,8.6,8.6,8.6c4.7,0,8.6-3.8,8.6-8.6
	C167,127.5,163.2,123.7,158.5,123.7z"/>
<path class="st1" d="M172.3,167.1c-7.4,0-13.5-6-13.5-13.5c0-7.4,6-13.5,13.5-13.5c7.4,0,13.5,6,13.5,13.5
	C185.8,161.1,179.7,167.1,172.3,167.1z M172.3,142.1c-6.3,0-11.5,5.1-11.5,11.5c0,6.3,5.1,11.5,11.5,11.5c6.3,0,11.5-5.1,11.5-11.5
	c0,0,0,0,0,0C183.8,147.3,178.6,142.1,172.3,142.1z"/>
</svg>
