<?xml version="1.0" encoding="utf-8"?>
<!-- Generator: Adobe Illustrator 24.3.0, SVG Export Plug-In . SVG Version: 6.00 Build 0)  -->
<svg version="1.1" id="Capa_1" xmlns="http://www.w3.org/2000/svg" xmlns:xlink="http://www.w3.org/1999/xlink" x="0px" y="0px"
	 viewBox="0 0 32.3 30.8" style="enable-background:new 0 0 32.3 30.8;" xml:space="preserve">
<style type="text/css">
	.st0{fill:#EAB442;}
</style>
<g id="Capa_2_1_">
	<path class="st0" d="M7.8,30.5c-0.4,0-0.8-0.1-1.1-0.4c-0.7-0.5-1-1.4-0.7-2.2l2.7-8.4c0.1-0.2,0-0.4-0.2-0.5l-7.1-5.2
		c-0.7-0.5-1-1.4-0.7-2.2s1-1.3,1.8-1.3h8.8c0.2,0,0.4-0.1,0.4-0.3l2.7-8.4c0.3-0.8,1-1.3,1.8-1.3c0.9,0,1.6,0.5,1.8,1.3l2.7,8.4
		c0.1,0.2,0.2,0.3,0.4,0.3h8.8c0.9,0,1.6,0.5,1.8,1.3c0.3,0.8,0,1.7-0.7,2.2L24.2,19C24,19.1,24,19.3,24,19.5l2.7,8.4
		c0.3,0.8,0,1.7-0.7,2.2s-1.6,0.5-2.3,0l-7.1-5.2c-0.2-0.1-0.4-0.1-0.5,0L9,30.1C8.6,30.3,8.2,30.5,7.8,30.5z M16.3,23.3
		c0.4,0,0.8,0.1,1.1,0.4l7.1,5.2c0.2,0.2,0.4,0.1,0.5,0s0.3-0.2,0.2-0.5L22.6,20c-0.3-0.8,0-1.7,0.7-2.2l7.1-5.2
		c0.2-0.2,0.2-0.4,0.2-0.5s-0.1-0.3-0.4-0.3h-8.8c-0.8,0-1.6-0.5-1.8-1.3l-2.7-8.4c-0.1-0.3-0.3-0.3-0.4-0.3s-0.3,0-0.4,0.3
		l-2.7,8.4c-0.3,0.8-1,1.3-1.8,1.3H2.5c-0.3,0-0.4,0.2-0.4,0.3S2,12.5,2.3,12.7l7.1,5.2c0.7,0.5,1,1.4,0.7,2.2l-2.7,8.4
		c-0.1,0.3,0.1,0.4,0.2,0.5s0.3,0.2,0.5,0l7.1-5.2C15.5,23.5,15.9,23.3,16.3,23.3z"/>
</g>
</svg>
