<?xml version="1.0" encoding="utf-8"?>
<!-- Generator: Adobe Illustrator 24.3.0, SVG Export Plug-In . SVG Version: 6.00 Build 0)  -->
<svg version="1.1" id="Capa_1" xmlns="http://www.w3.org/2000/svg" xmlns:xlink="http://www.w3.org/1999/xlink" x="0px" y="0px"
	 viewBox="0 0 221.3 139.2" style="enable-background:new 0 0 221.3 139.2;" xml:space="preserve">
<style type="text/css">
	.st0{fill:#FDC608;}
</style>
<path class="st0" d="M163.8,82.4H32.2c-1.1,0-2-0.9-2-2s0.9-2,2-2h127.9l5.4-68.8H78.7c-1.1,0-2-0.9-2-2s0.9-2,2-2h91.2L163.8,82.4z
	"/>
<path class="st0" d="M211.7,115.2h-15.3c-1.1,0-2-0.9-2-2s0.9-2,2-2H208l3.7-53.3c-1.2-10.5-5.3-18.6-12.2-24.1
	c-12.9-10.1-31.3-8-31.5-8c-1.1,0.1-2.1-0.6-2.2-1.8s0.6-2.1,1.8-2.2c0.8-0.1,20.3-2.4,34.4,8.8c7.8,6.2,12.5,15.3,13.8,27v0.2v0.2
	L211.7,115.2z"/>
<path class="st0" d="M156.2,115.2H80.6c-1.1,0-2-0.9-2-2s0.9-2,2-2h75.7c1.1,0,2,0.9,2,2S157.3,115.2,156.2,115.2z"/>
<path class="st0" d="M42.3,115.2H32.2c-1.1,0-2-0.9-2-2s0.9-2,2-2h10.1c1.1,0,2,0.9,2,2S43.4,115.2,42.3,115.2z"/>
<path class="st0" d="M213,67.4h-38.2l2.8-43.9c0.1-1.1,1-1.9,2.1-1.9c1.1,0.1,1.9,1,1.9,2.1L179,63.4h34c1.1,0,2,0.9,2,2
	C215,66.5,214.1,67.4,213,67.4L213,67.4z"/>
<path class="st0" d="M80.6,24.6H42.3c-0.6,0-1-0.4-1-1s0.4-1,1-1h38.3c0.6,0,1,0.4,1,1S81.1,24.6,80.6,24.6z"/>
<path class="st0" d="M76.3,43.6H6.8c-0.6,0-1-0.4-1-1s0.4-1,1-1h69.4c0.6,0,1,0.4,1,1S76.8,43.6,76.3,43.6L76.3,43.6z"/>
<path class="st0" d="M61.4,63.2H20.7c-0.6,0-1-0.4-1-1s0.4-1,1-1h40.7c0.6,0,1,0.4,1,1S62,63.2,61.4,63.2L61.4,63.2z"/>
<path class="st0" d="M61.4,125c-6.5,0-11.8-5.3-11.8-11.8s5.3-11.8,11.8-11.8c6.5,0,11.8,5.3,11.8,11.8l0,0
	C73.2,119.7,67.9,125,61.4,125z M61.4,103.4c-5.4,0-9.8,4.4-9.8,9.8s4.4,9.8,9.8,9.8s9.8-4.4,9.8-9.8l0,0
	C71.2,107.8,66.8,103.4,61.4,103.4L61.4,103.4z"/>
<path class="st0" d="M61.4,133.9c-11.4,0-20.7-9.3-20.7-20.7S50,92.5,61.4,92.5s20.7,9.3,20.7,20.7v0
	C82.1,124.7,72.9,133.9,61.4,133.9z M61.4,96.5c-9.2,0-16.7,7.5-16.7,16.7c0,9.2,7.5,16.7,16.7,16.7s16.7-7.5,16.7-16.7
	C78.1,104,70.7,96.5,61.4,96.5L61.4,96.5z"/>
<path class="st0" d="M176.9,125c-6.5,0-11.8-5.3-11.8-11.8c0-6.5,5.3-11.8,11.8-11.8c6.5,0,11.8,5.3,11.8,11.8
	C188.7,119.7,183.4,125,176.9,125z M176.9,103.4c-5.4,0-9.8,4.4-9.8,9.8s4.4,9.8,9.8,9.8s9.8-4.4,9.8-9.8v0
	C186.7,107.8,182.3,103.4,176.9,103.4L176.9,103.4z"/>
<path class="st0" d="M176.9,133.9c-11.4,0-20.7-9.3-20.7-20.7s9.3-20.7,20.7-20.7c11.4,0,20.7,9.3,20.7,20.7
	C197.6,124.7,188.3,133.9,176.9,133.9z M176.9,96.5c-9.2,0-16.7,7.5-16.7,16.7c0,9.2,7.5,16.7,16.7,16.7c9.2,0,16.7-7.5,16.7-16.7v0
	C193.6,104,186.1,96.5,176.9,96.5L176.9,96.5z"/>
</svg>
