<?xml version="1.0" encoding="utf-8"?>
<!-- Generator: Adobe Illustrator 24.3.0, SVG Export Plug-In . SVG Version: 6.00 Build 0)  -->
<svg version="1.1" id="Capa_1" xmlns="http://www.w3.org/2000/svg" xmlns:xlink="http://www.w3.org/1999/xlink" x="0px" y="0px"
	 viewBox="0 0 158.4 178.7" style="enable-background:new 0 0 158.4 178.7;" xml:space="preserve">
<style type="text/css">
	.st0{fill:#EAB442;}
	.st1{fill:#FFFFFF;}
</style>
<path class="st0" d="M79.1,2.5L79.1,2.5C36.7,2.5,2.4,36.8,2.4,79.1c0,0,0,0,0,0v99.6h153.2V79.2C155.7,36.8,121.4,2.5,79.1,2.5
	C79.1,2.5,79.1,2.5,79.1,2.5z"/>
<path class="st1" d="M81,39.8c-20.5,0-37.2,16.6-37.2,37.2c0,7.1,2,14.1,5.9,20.1L40,118.5l22.2-9.5c17.7,10.4,40.5,4.5,50.9-13.2
	s4.5-40.5-13.2-50.9C94.1,41.5,87.6,39.8,81,39.8z M66.4,82.9c-3.1,0-5.6-2.5-5.6-5.5s2.5-5.6,5.5-5.6c3.1,0,5.6,2.5,5.6,5.5
	c0,0,0,0,0,0C72,80.4,69.5,82.8,66.4,82.9C66.4,82.9,66.4,82.9,66.4,82.9z M80.9,82.9c-3.1,0-5.6-2.5-5.6-5.5s2.5-5.6,5.5-5.6
	c3.1,0,5.6,2.5,5.6,5.5c0,0,0,0,0,0C86.4,80.4,83.9,82.8,80.9,82.9C80.9,82.9,80.9,82.9,80.9,82.9z M95.4,82.9
	c-3.1,0-5.5-2.5-5.5-5.6s2.5-5.5,5.6-5.5c3.1,0,5.5,2.5,5.5,5.5C100.9,80.4,98.5,82.8,95.4,82.9L95.4,82.9z"/>
</svg>
