<?xml version="1.0" encoding="utf-8"?>
<!-- Generator: Adobe Illustrator 24.3.0, SVG Export Plug-In . SVG Version: 6.00 Build 0)  -->
<svg version="1.1" id="Capa_1" xmlns="http://www.w3.org/2000/svg" xmlns:xlink="http://www.w3.org/1999/xlink" x="0px" y="0px"
	 viewBox="0 0 32.7 30.8" style="enable-background:new 0 0 32.7 30.8;" xml:space="preserve">
<style type="text/css">
	.st0{fill:#EAB442;}
</style>
<path class="st0" d="M17.5,1.9l2.7,8.4c0.2,0.5,0.6,0.8,1.1,0.8h8.8c0.7,0,1.2,0.5,1.2,1.2c0,0.4-0.2,0.8-0.5,1l-7.1,5.2
	c-0.4,0.3-0.6,0.8-0.4,1.3l2.7,8.4c0.2,0.6-0.1,1.3-0.8,1.5c-0.4,0.1-0.8,0.1-1.1-0.2L17,24.3c-0.4-0.3-1-0.3-1.4,0l-7.1,5.2
	c-0.5,0.4-1.3,0.3-1.7-0.2c-0.2-0.3-0.3-0.7-0.2-1.1l2.7-8.4c0.2-0.5,0-1-0.4-1.3l-7.2-5.2c-0.5-0.4-0.6-1.1-0.2-1.7
	c0.2-0.3,0.6-0.5,1-0.5h8.8c0.5,0,1-0.3,1.1-0.8l2.7-8.4c0.2-0.6,0.9-1,1.5-0.8C17.1,1.2,17.4,1.5,17.5,1.9z"/>
<path class="st0" d="M7.8,30.5c-0.4,0-0.8-0.1-1.1-0.4c-0.7-0.5-1-1.4-0.7-2.2l2.7-8.4c0.1-0.2,0-0.4-0.2-0.5l-7.2-5.2
	C0.5,13.2,0.3,12,1,11.1c0.4-0.5,0.9-0.8,1.6-0.8h8.8c0.2,0,0.4-0.1,0.4-0.3l2.7-8.4c0.3-1,1.4-1.6,2.5-1.2c0.6,0.2,1,0.7,1.2,1.2
	l2.7,8.3c0.1,0.2,0.2,0.3,0.4,0.3h8.8c1.1,0,1.9,0.9,1.9,2c0,0.6-0.3,1.2-0.8,1.6L24.2,19c-0.2,0.1-0.2,0.3-0.2,0.5l2.7,8.4
	c0.3,1-0.2,2.1-1.2,2.5c-0.6,0.2-1.3,0.1-1.8-0.3l-7.1-5.2c-0.2-0.1-0.4-0.1-0.5,0L9,30.1C8.7,30.3,8.2,30.5,7.8,30.5z M16.4,23.3
	c0.4,0,0.8,0.1,1.1,0.4l7.1,5.2c0.2,0.1,0.4,0.1,0.5,0c0.2-0.1,0.2-0.3,0.2-0.5L22.6,20c-0.3-0.8,0-1.7,0.7-2.2l7.1-5.2
	c0.2-0.1,0.2-0.3,0.2-0.5c-0.1-0.2-0.2-0.3-0.4-0.3h-8.8c-0.8,0-1.6-0.5-1.8-1.3l-2.7-8.4c-0.1-0.2-0.3-0.4-0.6-0.3
	c-0.1,0-0.2,0.2-0.3,0.3l-2.7,8.4c-0.3,0.8-1,1.3-1.9,1.3H2.5c-0.2,0-0.4,0.2-0.4,0.4c0,0.1,0.1,0.3,0.2,0.4l7.1,5.2
	c0.7,0.5,1,1.4,0.7,2.2l-2.7,8.4c-0.1,0.2,0,0.4,0.2,0.5c0.2,0.1,0.4,0.1,0.5,0l7.1-5.2C15.5,23.5,15.9,23.3,16.4,23.3z"/>
</svg>
