<?xml version="1.0" encoding="utf-8"?>
<!-- Generator: Adobe Illustrator 24.3.0, SVG Export Plug-In . SVG Version: 6.00 Build 0)  -->
<svg version="1.1" id="Capa_1" xmlns="http://www.w3.org/2000/svg" xmlns:xlink="http://www.w3.org/1999/xlink" x="0px" y="0px"
	 viewBox="0 0 68.6 72.2" style="enable-background:new 0 0 68.6 72.2;" xml:space="preserve">
<style type="text/css">
	.st0{fill:#FFFFFF;}
	.st1{fill:#EAB442;}
	.st2{enable-background:new    ;}
</style>
<path class="st0" d="M39.9,69.7H11.3c-3.1,0-5.6-0.8-7.3-2.3c-1.8-1.7-2.7-4.2-2.4-6.7V14.9h59.6v26.6c-0.1,0.6-0.7,0.9-1.3,0.8
	c-0.4-0.1-0.7-0.4-0.8-0.8V16.6H3.7v44.3c-0.2,2,0.5,4,1.9,5.4c1.3,1.1,3.2,1.7,5.7,1.7h28.6c0.5-0.1,0.9,0.2,1.1,0.6
	c0.1,0.5-0.2,0.9-0.6,1.1C40.2,69.7,40.1,69.7,39.9,69.7z"/>
<path class="st0" d="M44.9,28c-0.6,0-1.1-0.5-1.1-1c0,0,0,0,0,0V14c-0.3-1.1-2.9-10.1-12.4-10.1s-12,8.6-12.2,9.8v13.3
	c0,0.6-0.5,1.1-1.1,1.1c-0.6,0-1.1-0.5-1.1-1.1V13.4v-0.1c0-0.1,2.7-11.5,14.3-11.5s14.5,11.7,14.5,11.8v0.1v13.2
	C45.9,27.5,45.4,28,44.9,28z"/>
<path class="st1" d="M54.1,71.1c-7.4,0-13.4-6-13.4-13.4c0-7.4,6-13.4,13.4-13.4c7.4,0,13.4,6,13.4,13.3
	C67.5,65.1,61.5,71.1,54.1,71.1C54.1,71.1,54.1,71.1,54.1,71.1z"/>
<g class="st2">
	<path class="st0" d="M52.4,64c-0.3,0-0.4-0.1-0.4-0.3v-0.1c0-0.1,0.1-0.3,0.2-0.4s0.3-0.3,0.5-0.5S53,62.3,53,62v-6.5
		c0-0.2-0.1-0.4-0.2-0.6c-0.1-0.1-0.3-0.2-0.4-0.3c-0.1,0-0.3-0.1-0.4-0.2c-0.1-0.1-0.2-0.2-0.2-0.3v-0.1c0-0.2,0.2-0.4,0.5-0.5
		l2.6-1.1c0.4-0.2,0.7-0.2,1-0.1c0.2,0.1,0.4,0.3,0.4,0.5c0,0.1-0.1,0.3-0.2,0.6c-0.1,0.3-0.2,0.6-0.2,0.9V62c0,0.2,0.1,0.4,0.3,0.6
		s0.3,0.4,0.5,0.5c0.2,0.2,0.2,0.3,0.2,0.4v0.1c0,0.2-0.1,0.3-0.4,0.3H52.4z"/>
</g>
</svg>
