<?xml version="1.0" encoding="utf-8"?>
<!-- Generator: Adobe Illustrator 24.3.0, SVG Export Plug-In . SVG Version: 6.00 Build 0)  -->
<svg version="1.1" id="Capa_1" xmlns="http://www.w3.org/2000/svg" xmlns:xlink="http://www.w3.org/1999/xlink" x="0px" y="0px"
	 viewBox="0 0 24.7 25" style="enable-background:new 0 0 24.7 25;" xml:space="preserve">
<style type="text/css">
	.st0{fill:#FFFFFF;}
	.st1{display:none;fill:#FFFFFF;}
</style>
<g>
	<path class="st0" d="M12.3,1.2c6.3,0,11.3,5.1,11.3,11.3s-5.1,11.3-11.3,11.3S1,18.8,1,12.5S6.1,1.2,12.3,1.2 M12.3,0.2
		C5.5,0.2,0,5.7,0,12.5s5.5,12.3,12.3,12.3s12.3-5.5,12.3-12.3S19.2,0.2,12.3,0.2L12.3,0.2z"/>
</g>
<path class="st0" d="M12.1,5.1c-3.8,0.1-7,3.2-7.2,6.9c-0.3,4,2.6,7.4,6.3,7.9v-5.4H10c-0.5,0-1-0.4-1-1l0,0c0-0.5,0.4-1,1-1h1.2
	v-1.3c0-2.2,1.1-3.1,2.9-3.1c0.3,0,0.5,0,0.7,0c0.5,0,0.8,0.4,0.8,0.9l0,0c0,0.5-0.4,0.9-0.9,0.9h-0.3c-0.8,0-1,0.7-1,1.5v1.1h1.4
	c0.4,0,0.8,0.4,0.7,0.8l-0.1,0.5c-0.1,0.4-0.4,0.6-0.7,0.6h-1.3V20c3.7-0.5,6.5-3.6,6.5-7.4C19.8,8.3,16.3,4.9,12.1,5.1z"/>
<path class="st1" d="M9.6,6.1c-2.1,0-3.7,1.7-3.7,3.7v5.4c0,2.1,1.7,3.7,3.7,3.7H15c2.1,0,3.7-1.7,3.7-3.7V9.8
	c0-2.1-1.7-3.7-3.7-3.7H9.6z M16.1,8.2c0.3,0,0.5,0.2,0.5,0.5s-0.2,0.5-0.5,0.5c-0.3,0-0.6-0.2-0.6-0.5S15.8,8.2,16.1,8.2z
	 M12.3,9.3c1.8,0,3.2,1.5,3.2,3.2s-1.5,3.2-3.2,3.2s-3.2-1.5-3.2-3.2S10.5,9.3,12.3,9.3z M12.3,10.4c-1.2,0-2.1,1-2.1,2.1
	s1,2.1,2.1,2.1s2.1-1,2.1-2.1S13.5,10.4,12.3,10.4z"/>
<path class="st1" d="M12.3,6.1c-3.5,0-6.4,2.9-6.4,6.4s2.9,6.4,6.4,6.4s6.4-2.9,6.4-6.4S15.9,6.1,12.3,6.1z M14.9,15.8
	c-0.2,0-0.2-0.1-0.3-0.2c-0.9-0.5-2-0.9-3.2-0.9c-0.6,0-1.4,0.2-1.9,0.2c-0.2,0-0.2,0.1-0.3,0.1c-0.2,0-0.4-0.2-0.4-0.4
	c0-0.2,0.2-0.4,0.4-0.4c0.8-0.2,1.5-0.3,2.3-0.3c1.4,0,2.6,0.4,3.6,0.9c0.2,0.2,0.2,0.2,0.2,0.4C15.2,15.6,15,15.8,14.9,15.8z
	 M15.6,14c-0.2,0-0.2-0.1-0.4-0.2c-1-0.6-2.4-1-3.9-1c-0.8,0-1.5,0.2-2,0.2C9,13.2,9,13.2,8.9,13.2c-0.3,0-0.5-0.2-0.5-0.5
	c0-0.3,0.2-0.4,0.4-0.5c0.7-0.2,1.4-0.4,2.4-0.4c1.6,0,3.2,0.4,4.5,1.2c0.2,0.2,0.3,0.3,0.3,0.5C16,13.8,15.8,14,15.6,14z
	 M16.2,12.2c-0.2,0-0.2-0.1-0.4-0.2C14.7,11.4,13,11,11.3,11c-0.9,0-1.7,0.2-2.5,0.3c0,0.1-0.1,0.1-0.2,0.1C8.2,11.4,8,11.1,8,10.7
	c0-0.4,0.2-0.5,0.4-0.6c1-0.2,1.9-0.3,3-0.3c1.9,0,3.7,0.4,5.2,1.2c0.2,0.2,0.4,0.3,0.4,0.6C16.9,12,16.6,12.2,16.2,12.2z"/>
</svg>
